<svg version="1.1" xmlns="http://www.w3.org/2000/svg" style="display: block;" viewBox="512 512 1024 1024" preserveAspectRatio="xMidYMid meet">
<defs>
    <linearGradient id="Gradient1" gradientUnits="userSpaceOnUse" x1="993.219" y1="939.92" x2="1047.21" y2="874.563">
        <stop class="stop0" offset="0" stop-opacity="1" stop-color="rgb(71,110,1)"/>
        <stop class="stop1" offset="1" stop-opacity="1" stop-color="rgb(124,150,1)"/>
    </linearGradient>
    <clipPath id="clip">
        <rect x="512" y="512" width="1024" height="1024" rx="160" ry="160"/>
    </clipPath>
</defs>
<g clip-path="url(#clip)">
<rect x="512" y="512" width="1024" height="1024" rx="160" ry="160" fill="rgb(254,254,250)"/>
<g transform="translate(-120, -110) scale(1.12)">
<!-- simplified bulb path for favicon -->
<path transform="translate(0,0)" fill="rgb(200,157,0)" d="M 860.866 648.103 C 877.523 647.151 883.212 665.484 893.326 678.148 C 903.278 690.609 912.542 700.079 896.763 711.891 C 887.959 712.561 881.301 709.375 877.58 701.559 C 869.796 685.21 837.715 662.324 860.866 648.103 z"/>
</g>
</g>
</svg>
<svg version="1.1" xmlns="http://www.w3.org/2000/svg" style="display: block;" viewBox="512 512 1024 1024" preserveAspectRatio="xMidYMid meet">
<defs>
	<linearGradient id="Gradient1" gradientUnits="userSpaceOnUse" x1="993.219" y1="939.92" x2="1047.21" y2="874.563">
		<stop class="stop0" offset="0" stop-opacity="1" stop-color="rgb(71,110,1)"/>
		<stop class="stop1" offset="1" stop-opacity="1" stop-color="rgb(124,150,1)"/>
	</linearGradient>
	<linearGradient id="Gradient2" gradientUnits="userSpaceOnUse" x1="1007.29" y1="953.528" x2="911.285" y2="1041.45">
		<stop class="stop0" offset="0" stop-opacity="1" stop-color="rgb(75,112,0)"/>
		<stop class="stop1" offset="1" stop-opacity="1" stop-color="rgb(16,59,7)"/>
	</linearGradient>
	<linearGradient id="Gradient3" gradientUnits="userSpaceOnUse" x1="1065.69" y1="928.077" x2="1177.72" y2="865.026">
		<stop class="stop0" offset="0" stop-opacity="1" stop-color="rgb(115,144,1)"/>
		<stop class="stop1" offset="1" stop-opacity="1" stop-color="rgb(189,199,1)"/>
	</linearGradient>
	<linearGradient id="Gradient4" gradientUnits="userSpaceOnUse" x1="1027.91" y1="1007.23" x2="1157.19" y2="938.971">
		<stop class="stop0" offset="0" stop-opacity="1" stop-color="rgb(59,101,1)"/>
		<stop class="stop1" offset="1" stop-opacity="1" stop-color="rgb(156,175,1)"/>
	</linearGradient>
	<clipPath id="clip">
		<rect x="512" y="512" width="1024" height="1024" rx="160" ry="160"/>
	</clipPath>
</defs>
<g clip-path="url(#clip)">
<rect x="512" y="512" width="1024" height="1024" rx="160" ry="160" fill="rgb(254,254,250)"/>
<g transform="translate(-120, -110) scale(1.12)">
<path transform="translate(0,0)" fill="rgb(3,43,17)" d="M 957.582 1323.89 L 959.026 1323.45 C 965.154 1321.63 988.107 1318.5 996.478 1316.97 C 1022.34 1312.16 1048.15 1307.11 1073.92 1301.83 C 1085.35 1299.55 1113.56 1298.31 1114.11 1283.23 C 1112.84 1280.7 1111.92 1279.49 1108.99 1278.63 C 1098.89 1275.66 995.583 1297.14 974.135 1300.99 C 963.613 1302.88 949.272 1307.22 938.726 1305.65 C 935.114 1305.11 931.88 1302.57 929.949 1299.53 C 927.859 1296.24 927.281 1292.29 928.161 1288.51 C 929.124 1284.38 931.624 1280.24 935.344 1278.05 C 944.453 1272.69 962.154 1272.26 972.73 1270.69 C 1002.54 1266.3 1032.3 1261.58 1062.01 1256.55 C 1073.77 1254.59 1109.98 1251.71 1114.02 1240.52 C 1113.6 1237.92 1113.57 1236.44 1111.41 1234.61 C 1096.61 1222.04 964.734 1262.62 933.124 1248.8 C 928.531 1246.79 925.432 1242.96 924.328 1238.09 C 923.332 1233.69 923.411 1227.82 925.955 1223.94 C 928.787 1219.62 933.238 1217.35 938.209 1216.46 C 959.452 1212.67 993.669 1214.83 1016.26 1214.82 C 1046.27 1214.81 1077.42 1213.11 1107.27 1215.54 C 1112.01 1215.93 1117.34 1216.12 1121.31 1218.96 C 1125.7 1222.1 1127.53 1227.84 1128.05 1232.98 C 1128.75 1239.98 1127.02 1246.04 1122.26 1251.3 C 1119.79 1254.04 1116.61 1256.02 1113.5 1257.96 C 1124.87 1269.68 1135.96 1287.56 1121.47 1303 C 1118.02 1306.68 1112.46 1307.83 1107.57 1308.69 C 1105.82 1312.75 1102.27 1320.45 1101.04 1324.35 C 1083.15 1370.82 1019.67 1384.89 981.199 1356.4 C 970.828 1348.72 959.766 1336.92 957.582 1323.89 z"/>
<path transform="translate(0,0)" fill="rgb(161,166,1)" d="M 1066.72 1329.84 C 1068.45 1330.41 1068.99 1330.81 1070.61 1331.67 C 1070.95 1339.82 1056.08 1344.27 1049.46 1345.57 L 1046.1 1344.56 L 1046.6 1342.57 C 1052.15 1337.06 1059.77 1333.44 1066.72 1329.84 z"/>
<path transform="translate(0,0)" fill="rgb(3,43,17)" d="M 1006.59 708.395 C 1006.79 708.364 1006.99 708.333 1007.19 708.302 C 1069.47 702.659 1131.39 722.46 1178.84 763.195 C 1222.81 801.916 1249.57 856.533 1253.22 915.005 C 1256.94 970.73 1236.8 1027.47 1201.13 1070.06 C 1188.15 1085.55 1167.67 1107.33 1158.69 1124.84 C 1154.63 1132.95 1151.35 1141.42 1148.89 1150.15 C 1137.36 1191.53 1147.88 1198.12 1094.71 1198.06 C 1080.56 1198.05 1064.76 1198.05 1050.5 1198.01 C 1031.73 1198.03 932.933 1201.65 920.302 1192.17 C 909.762 1184.26 909.391 1161.18 905.87 1149.07 C 903.337 1140.57 900.049 1132.32 896.046 1124.41 C 890.855 1114.22 878.01 1096.43 869.944 1088.2 C 732.841 948.304 810.463 727.98 1006.59 708.395 z"/>
<path transform="translate(0,0)" fill="rgb(254,254,250)" d="M 987.587 1167.84 C 978.897 1167.94 951.765 1169.54 945.546 1164.54 C 934.743 1142.84 935.02 1122 919.527 1099.12 C 904.717 1077.26 888.1 1062.18 872.215 1042.08 C 832.304 991.877 820.656 924.83 841.295 864.111 C 857.797 816.679 892.585 777.817 937.908 756.185 C 985.287 733.115 1044.16 729.022 1094.02 746.256 C 1142.5 763.214 1182.22 798.8 1204.37 845.132 C 1226.25 891.108 1227.9 945.004 1210.3 992.56 C 1202.59 1013.38 1189.5 1035.35 1174.56 1051.6 C 1152.18 1075.93 1130.02 1098.87 1119.97 1131.37 C 1116.27 1143.33 1114.48 1154.67 1108.1 1165.83 C 1096.2 1170.42 1034.3 1168.35 1019.85 1165.41 C 1002.17 1161.82 981.49 1086.41 1010.21 1082.22 C 1059.34 1075.05 1100.42 1056.83 1133.61 1018.34 C 1130.65 1019.01 1129.36 1020.86 1127.17 1023.05 C 1124.28 1026.58 1120.31 1030.19 1116.63 1032.92 C 1108.43 1041.72 1094.71 1050.79 1084.02 1056.26 C 1072.35 1035.2 1048.03 1020.32 1041.08 996.02 C 1037.67 984.057 1065.51 983.158 1071.62 974.384 C 1033.94 989.429 998.937 1006.51 982.17 1046.02 C 967.555 1080.46 965.583 1136.32 987.587 1167.84 z"/>
<path transform="translate(0,0)" fill="url(#Gradient4)" d="M 1125.87 874.01 C 1125.8 873.222 1126.41 881.727 1126.1 880.377 C 1127.68 887.249 1133.27 893.229 1136.43 899.791 C 1145.14 917.912 1155.04 936.635 1161.99 955.379 C 1162.79 957.526 1162.36 957.253 1164.05 958.989 L 1166.88 960.112 C 1160.24 978.585 1147.88 1004.54 1133.61 1018.34 C 1130.65 1019.01 1129.36 1020.86 1127.17 1023.05 C 1124.28 1026.58 1120.31 1030.19 1116.63 1032.92 C 1108.43 1041.72 1094.71 1050.79 1084.02 1056.26 C 1072.35 1035.2 1048.03 1020.32 1041.08 996.02 C 1037.67 984.057 1065.51 983.158 1071.62 974.384 C 1072.96 973.511 1080.8 970.064 1082.59 969.266 C 1095.91 963.319 1101.56 960.779 1112.62 951.344 C 1099.24 956.78 1092.22 959.341 1078.25 962.465 C 1063.78 961.122 1024.24 978.811 1009.09 984.002 C 1029.61 962.369 1052.49 945.875 1075.89 927.664 C 1076.17 926.855 1076.46 926.045 1076.75 925.236 C 1098.66 905.646 1109.27 900.362 1125.87 874.01 z"/>
<path transform="translate(0,0)" fill="rgb(90,128,4)" d="M 1116.63 1032.92 C 1118.72 1030.19 1124.11 1023.94 1127.17 1023.05 C 1124.28 1026.58 1120.31 1030.19 1116.63 1032.92 z"/>
<path transform="translate(0,0)" fill="url(#Gradient3)" d="M 1031.75 860.319 C 1073.89 844.766 1112.44 835.818 1139.82 796.992 C 1168.24 834.868 1180.46 882.475 1173.8 929.355 C 1172.43 939.392 1170.3 950.539 1166.88 960.112 L 1164.05 958.989 C 1162.36 957.253 1162.79 957.526 1161.99 955.379 C 1155.04 936.635 1145.14 917.912 1136.43 899.791 C 1133.27 893.229 1127.68 887.249 1126.1 880.377 C 1126.41 881.727 1125.8 873.222 1125.87 874.01 L 1125.45 872.698 C 1112.81 882.312 1095.47 899.4 1080.43 906.555 C 1077.8 906.173 1076.59 906.185 1074.57 904.445 C 1064.24 895.539 1037.91 879.548 1032.37 867.358 C 1032.56 864.28 1032.65 863.379 1031.75 860.319 z"/>
<path transform="translate(0,0)" fill="url(#Gradient2)" d="M 961.589 907.919 C 963.287 917.13 974.847 925.307 983.512 927.443 C 983.514 931.576 982.688 930.277 984.782 932.392 L 986.404 932.132 C 987.365 935.193 990.043 961.931 990.328 965.957 C 988.145 971.307 976.426 989.326 972.914 996.077 C 955.377 1029.79 955.602 1056.82 955.958 1093.22 C 942.174 1066.81 934.197 1042.44 931.381 1012.9 C 927.319 970.293 934.856 940.75 961.589 907.919 z"/>
<path transform="translate(0,0)" fill="url(#Gradient1)" d="M 961.589 907.919 C 979.233 886.883 1006.56 870.517 1031.75 860.319 C 1032.65 863.379 1032.56 864.28 1032.37 867.358 C 1037.91 879.548 1064.24 895.539 1074.57 904.445 C 1076.59 906.185 1077.8 906.173 1080.43 906.555 C 1053.78 923.561 1030.67 934.414 1003.54 953.328 C 1000.39 947.356 990.586 925.482 987.036 923.734 C 985.405 926.356 986.117 928.9 986.404 932.132 L 984.782 932.392 C 982.688 930.277 983.514 931.576 983.512 927.443 C 974.847 925.307 963.287 917.13 961.589 907.919 z"/>
<path transform="translate(0,0)" fill="rgb(3,43,17)" d="M 1076.75 925.236 C 1076.46 926.045 1076.17 926.855 1075.89 927.664 C 1052.49 945.875 1029.61 962.369 1009.09 984.002 C 1024.24 978.811 1063.78 961.122 1078.25 962.465 C 1046.15 972.007 1028.88 976.795 999.577 993.773 C 1013.73 968.418 1052.43 942.891 1076.75 925.236 z"/>
<path transform="translate(0,0)" fill="rgb(122,146,0)" d="M 936.704 789.37 C 967.288 766.694 1027.89 756.059 1065.91 758.612 C 1031.99 767.633 1007.67 781.092 978.434 800.409 C 972.864 804.089 961.41 814.988 957.678 817.136 C 886.786 885.451 866.769 951.382 902.557 1045.54 C 887.257 1023.42 869.199 994.436 863.476 967.997 C 856.149 944.089 856.419 910.884 862.436 886.815 C 872.862 845.104 900.052 811.246 936.704 789.37 z"/>
<path transform="translate(0,0)" fill="rgb(45,84,3)" d="M 936.704 789.37 C 935.276 793.349 914.945 806.424 909.55 811.885 C 896.709 824.883 886.936 836.231 878.602 852.583 C 878.366 857.106 874.518 864.761 872.596 869.201 C 882.027 876.41 888.613 879.33 899.497 884.38 C 901.366 880.68 901.547 880.411 904.988 878.113 C 910.386 866.204 946.242 818.397 957.678 817.136 C 886.786 885.451 866.769 951.382 902.557 1045.54 C 887.257 1023.42 869.199 994.436 863.476 967.997 C 856.149 944.089 856.419 910.884 862.436 886.815 C 872.862 845.104 900.052 811.246 936.704 789.37 z"/>
<path transform="translate(0,0)" fill="rgb(3,43,17)" d="M 936.704 789.37 C 935.276 793.349 914.945 806.424 909.55 811.885 C 896.709 824.883 886.936 836.231 878.602 852.583 C 861.491 877.899 856.579 927.145 862.93 956.51 C 863.821 960.635 865.39 964.848 863.476 967.997 C 856.149 944.089 856.419 910.884 862.436 886.815 C 872.862 845.104 900.052 811.246 936.704 789.37 z"/>
<path transform="translate(0,0)" fill="rgb(161,166,1)" d="M 1022.22 600.974 C 1043.03 602.622 1038.44 622.575 1038.26 639.034 C 1038.09 654.839 1043.16 674.27 1026.76 680.187 C 1006.33 679.616 1011.96 658.924 1011.37 644.144 C 1010.91 632.694 1011.46 619.439 1013.02 608.203 C 1013.48 604.871 1019.55 602.271 1022.22 600.974 z"/>
<path transform="translate(0,0)" fill="rgb(122,146,0)" d="M 740.153 771.9 C 745.476 773.367 753.919 776.691 759.213 778.863 C 774.275 785.044 823.193 796.232 791.575 817.87 C 780.749 818.097 757.706 806.069 746.357 801.993 C 730.945 796.457 720.512 781.709 740.153 771.9 z"/>
<path transform="translate(0,0)" fill="rgb(161,166,1)" d="M 1304.89 772.917 C 1322.52 773.064 1326.56 792.177 1307.15 800.365 C 1292.88 806.383 1278.6 812.146 1264.13 817.768 C 1255.56 818.494 1247.82 812.21 1248.87 804.864 C 1250.95 790.219 1292.7 778.167 1304.89 772.917 z"/>
<path transform="translate(0,0)" fill="rgb(200,157,0)" d="M 1179.83 648.004 C 1221.68 645.998 1171.05 706.285 1160.28 712.68 C 1126.84 713.969 1154.74 677.377 1163.63 667.327 C 1169.43 660.77 1172.4 653.645 1179.83 648.004 z"/>
<path transform="translate(0,0)" fill="rgb(200,157,0)" d="M 860.866 648.103 C 877.523 647.151 883.212 665.484 893.326 678.148 C 903.278 690.609 912.542 700.079 896.763 711.891 C 887.959 712.561 881.301 709.375 877.58 701.559 C 869.796 685.21 837.715 662.324 860.866 648.103 z"/>
</g>
</g>
</svg>